<!DOCTYPE svg PUBLIC "-//W3C//DTD SVG 20010904//EN" "http://www.w3.org/TR/2001/REC-SVG-20010904/DTD/svg10.dtd">
<svg version="1.0" xmlns="http://www.w3.org/2000/svg" width="1024px" height="1024px" viewBox="0 0 10240 10240" preserveAspectRatio="xMidYMid meet">
<g id="layer101" fill="#1c1c1e" stroke="none">
 <path d="M0 5120 l0 -5120 5120 0 5120 0 0 5120 0 5120 -5120 0 -5120 0 0 -5120z"/>
 </g>
<g id="layer102" fill="#fefefe" stroke="none">
 <path d="M4535 10228 c-33 -5 -119 -17 -192 -28 -143 -21 -464 -87 -475 -98 -4 -4 -12 -72 -18 -152 -37 -484 -89 -706 -176 -748 -92 -43 -240 55 -559 371 l-190 189 -90 -46 c-151 -76 -293 -158 -445 -256 -80 -51 -147 -95 -149 -97 -2 -1 4 -31 13 -65 131 -468 165 -646 146 -763 -18 -114 -84 -139 -255 -95 -103 26 -291 103 -498 203 l-168 80 -35 -34 c-122 -115 -474 -546 -474 -579 0 -6 49 -79 108 -163 224 -314 314 -478 320 -585 4 -55 1 -66 -18 -87 -40 -43 -101 -57 -275 -62 -146 -5 -266 2 -580 33 l-61 6 -61 -148 c-75 -181 -129 -330 -176 -486 l-35 -118 122 -82 c392 -263 580 -445 562 -543 -8 -43 -67 -95 -154 -136 -88 -43 -325 -119 -529 -170 l-172 -44 -7 -85 c-10 -122 -10 -454 0 -600 l9 -126 151 -38 c444 -112 681 -216 701 -306 22 -98 -146 -263 -542 -534 -78 -53 -140 -102 -138 -109 2 -7 22 -73 45 -147 54 -176 202 -561 225 -588 1 -1 105 7 231 19 169 15 273 20 399 16 183 -5 227 -13 276 -54 31 -26 31 -28 27 -94 -8 -112 -105 -289 -328 -599 -55 -77 -100 -144 -100 -150 0 -33 353 -464 474 -579 l35 -34 163 78 c305 146 489 214 609 222 73 5 77 5 107 -23 80 -73 58 -282 -85 -787 -20 -70 -34 -129 -32 -131 61 -51 356 -227 545 -326 l141 -74 124 129 c218 225 426 397 520 431 68 23 92 19 132 -25 75 -83 106 -243 155 -790 l7 -84 95 -23 c217 -53 675 -123 691 -106 3 4 34 70 69 147 192 431 326 625 429 625 98 0 219 -169 396 -549 40 -86 80 -173 89 -195 15 -37 18 -38 54 -33 20 4 79 11 130 17 154 17 601 105 615 120 3 3 10 77 17 165 40 533 102 745 218 745 45 0 158 -63 257 -142 49 -40 171 -153 270 -252 l180 -179 105 54 c160 83 537 307 579 345 2 1 -22 94 -53 206 -101 365 -132 573 -98 668 43 125 258 81 750 -155 l162 -78 31 29 c117 110 479 552 479 584 0 6 -53 84 -117 175 -215 299 -313 483 -313 587 0 50 3 59 30 82 48 40 94 49 276 53 125 3 233 -1 399 -17 125 -11 229 -19 230 -18 1 2 23 50 48 108 62 146 149 383 190 522 l35 118 -141 97 c-395 269 -561 431 -543 529 8 42 68 94 156 136 86 41 318 116 508 164 l152 39 0 415 0 415 -153 39 c-197 51 -414 120 -503 161 -89 40 -151 95 -160 140 -18 95 150 262 518 514 l165 113 -34 116 c-43 143 -115 341 -185 508 l-53 126 -60 -6 c-314 -31 -434 -38 -580 -33 -174 5 -235 19 -275 62 -20 21 -22 32 -18 89 3 53 13 83 55 168 50 101 173 292 306 475 37 51 67 98 67 103 0 33 -362 474 -479 584 l-31 29 -152 -73 c-386 -184 -591 -251 -692 -226 -115 29 -108 238 26 721 28 99 52 189 55 200 3 16 -19 34 -124 101 -165 105 -365 221 -473 274 l-86 42 -185 -183 c-217 -216 -327 -308 -427 -356 -58 -28 -80 -34 -110 -30 -107 18 -161 217 -205 761 l-12 150 -30 8 c-149 41 -715 136 -746 126 -6 -2 -54 -98 -108 -214 -271 -585 -390 -679 -562 -444 -80 110 -209 358 -319 615 -22 50 -21 50 -135 33z m805 -1448 c409 -25 759 -99 1120 -237 1034 -395 1842 -1246 2181 -2298 215 -668 233 -1371 54 -2060 -131 -505 -382 -994 -719 -1404 -105 -128 -365 -386 -496 -492 -582 -473 -1244 -746 -1985 -820 -157 -15 -549 -16 -697 -1 -876 90 -1666 469 -2269 1088 -876 899 -1227 2134 -959 3364 107 486 338 990 636 1388 652 868 1620 1397 2694 1471 169 12 256 12 440 1z"/>
 <path d="M6229 6774 c-8 -9 -16 -39 -19 -66 l-5 -49 -68 -24 c-37 -13 -82 -32 -99 -43 l-32 -21 -38 35 c-21 19 -48 34 -61 34 -30 0 -147 -117 -147 -148 0 -12 16 -39 35 -60 32 -36 33 -40 20 -60 -9 -11 -25 -46 -36 -76 l-22 -56 -52 0 c-74 0 -89 -19 -94 -122 -4 -89 10 -118 58 -118 58 0 68 -9 81 -68 7 -31 23 -81 36 -111 l24 -54 -35 -29 c-52 -44 -48 -78 18 -152 64 -71 98 -78 147 -31 l30 29 68 -36 c37 -20 91 -43 120 -53 52 -17 52 -17 52 -59 0 -23 7 -52 16 -64 14 -20 23 -22 109 -22 86 0 95 2 109 22 9 12 16 41 16 64 0 41 0 42 53 59 28 9 75 29 103 44 l51 28 36 -34 c54 -49 79 -45 149 25 69 70 74 95 25 148 l-32 36 32 66 c18 37 33 73 33 80 0 8 18 12 54 12 83 0 101 30 94 155 -3 66 -16 79 -89 90 -34 5 -37 8 -48 58 -6 28 -22 78 -35 109 l-23 57 33 32 c49 48 46 77 -17 150 -44 50 -57 59 -85 59 -23 0 -44 -9 -66 -29 l-31 -28 -47 29 c-25 16 -77 39 -116 53 l-69 24 -5 49 c-8 76 -17 82 -125 82 -73 0 -95 -3 -106 -16z m277 -374 c73 -36 131 -96 171 -179 25 -49 28 -67 28 -151 0 -88 -3 -101 -33 -162 -138 -282 -536 -282 -674 0 -30 61 -33 74 -33 162 1 83 4 102 28 151 97 199 317 276 513 179z"/>
 <path d="M4319 6339 c-135 -18 -151 -23 -189 -64 -21 -22 -25 -37 -25 -83 0 -31 3 -79 7 -105 8 -48 7 -48 -25 -59 -71 -25 -206 -100 -281 -157 -48 -36 -84 -57 -90 -52 -96 75 -141 101 -175 101 -44 0 -86 -21 -115 -57 -136 -172 -156 -204 -156 -253 0 -57 17 -81 100 -145 l58 -45 -30 -77 c-17 -43 -40 -118 -53 -168 l-22 -90 -91 -5 c-98 -6 -126 -20 -158 -82 -21 -40 -5 -305 20 -343 34 -52 72 -66 169 -63 l88 3 25 -75 c30 -87 100 -226 149 -295 l34 -48 -60 -69 c-58 -67 -65 -84 -59 -147 3 -38 24 -62 123 -148 116 -101 128 -106 191 -100 48 4 55 9 113 72 l62 68 78 -35 c110 -50 228 -86 331 -99 l89 -12 11 -85 c22 -163 60 -182 299 -148 111 16 126 21 163 61 22 24 25 35 24 104 -1 43 -4 89 -7 103 -6 24 -2 28 48 48 74 30 218 113 285 165 l55 43 30 -24 c102 -83 157 -101 221 -72 16 7 66 64 116 131 76 102 88 124 88 158 0 58 -22 91 -92 145 -35 26 -64 48 -65 49 -1 0 13 38 31 83 18 45 42 120 52 166 18 84 18 84 54 90 19 3 55 6 78 6 63 0 109 25 133 72 19 37 20 49 11 183 -10 158 -18 180 -75 216 -27 17 -46 20 -120 17 l-88 -3 -25 73 c-30 89 -100 230 -148 296 l-35 49 55 61 c106 119 98 166 -55 299 -112 98 -127 107 -176 107 -51 0 -72 -13 -136 -83 l-56 -62 -79 37 c-105 49 -230 87 -334 102 l-85 12 -11 81 c-23 157 -65 180 -275 152z m364 -705 c221 -49 415 -207 512 -417 49 -106 67 -193 67 -317 -2 -324 -198 -595 -515 -708 -66 -24 -86 -26 -232 -26 -144 -1 -167 2 -225 23 -206 75 -347 194 -440 373 -108 206 -110 469 -7 674 99 196 276 339 487 394 95 24 254 26 353 4z"/>
 <path d="M6540 5337 c-20 -10 -26 -21 -28 -55 -3 -36 -7 -43 -30 -48 -15 -4 -51 -18 -80 -31 l-52 -25 -31 26 c-17 14 -35 26 -40 26 -6 0 -32 -21 -59 -46 -56 -53 -62 -79 -26 -113 l24 -23 -29 -61 c-27 -58 -31 -62 -64 -62 -50 -1 -68 -24 -73 -93 -5 -69 11 -92 63 -92 30 0 33 -3 40 -37 4 -21 16 -60 27 -86 l21 -48 -27 -28 c-35 -37 -33 -58 15 -113 45 -53 66 -58 109 -26 l30 21 47 -25 c27 -14 67 -32 91 -39 40 -12 42 -14 42 -50 0 -50 27 -69 97 -69 64 0 93 23 93 73 0 30 4 35 38 45 20 6 55 20 76 31 l39 20 29 -24 c16 -14 37 -25 47 -25 21 0 111 90 111 112 0 9 -11 29 -24 45 l-25 29 30 62 c27 57 32 62 54 56 16 -4 35 0 50 10 23 15 25 23 25 86 0 75 -4 81 -59 89 -31 6 -35 10 -47 59 -8 29 -20 65 -28 80 -13 25 -12 29 15 60 16 18 29 39 29 48 0 19 -76 101 -101 109 -13 4 -31 -2 -52 -18 l-33 -25 -39 24 c-22 13 -61 31 -87 40 -38 12 -48 20 -48 37 0 12 -3 32 -6 44 -10 38 -102 56 -154 30z m176 -315 c93 -47 154 -161 139 -260 -37 -247 -362 -304 -477 -83 -30 57 -37 126 -18 190 21 75 93 146 171 170 49 15 139 6 185 -17z"/>
 </g>

</svg>