<!DOCTYPE svg PUBLIC "-//W3C//DTD SVG 20010904//EN" "http://www.w3.org/TR/2001/REC-SVG-20010904/DTD/svg10.dtd">
<svg version="1.0" xmlns="http://www.w3.org/2000/svg" width="1024px" height="1024px" viewBox="0 0 10240 10240" preserveAspectRatio="xMidYMid meet">
<g id="layer101" fill="#000000" stroke="none">
<path d="M0 5120 l0 -5120 5120 0 5120 0 0 5120 0 5120 -5120 0 -5120 0 0 -5120z"/>
</g>
<g id="layer102" fill="#545454" stroke="none">
<path d="M0 7889 c0 -2234 1 -2350 18 -2345 9 2 80 21 157 41 427 110 620 192 662 280 15 31 15 37 -2 81 -36 96 -209 247 -532 468 -138 94 -141 97 -133 124 5 15 32 99 61 187 53 165 97 283 164 440 21 50 39 91 40 93 1 1 58 -4 126 -12 192 -23 475 -39 564 -32 256 22 298 93 186 320 -48 100 -192 323 -318 495 l-62 83 89 119 c114 150 185 235 318 380 l106 116 160 -77 c410 -197 617 -261 703 -216 104 53 81 277 -86 858 l-20 68 62 44 c96 68 338 210 491 287 l138 71 182 -181 c253 -253 371 -346 479 -381 150 -48 215 152 262 808 7 89 8 92 34 98 14 3 51 12 83 20 172 43 438 87 591 99 l87 7 37 -83 c63 -140 198 -410 243 -484 89 -146 153 -205 224 -205 36 0 46 6 101 63 35 35 88 107 120 162 53 90 185 358 244 494 l23 54 81 -7 c97 -8 132 -12 257 -31 111 -18 423 -84 438 -94 6 -4 18 -93 27 -201 41 -497 95 -686 201 -706 86 -16 270 118 545 397 92 93 169 169 172 169 9 0 333 -173 417 -223 64 -38 242 -153 268 -172 1 -1 -22 -91 -53 -199 -58 -208 -99 -404 -111 -523 -9 -96 8 -164 49 -199 30 -25 36 -26 103 -21 126 11 284 69 601 222 l173 83 136 -151 c117 -129 313 -370 361 -444 13 -20 8 -30 -78 -149 -271 -376 -379 -594 -337 -681 45 -95 316 -114 802 -57 66 7 122 12 124 9 22 -21 187 -458 238 -630 14 -44 27 -87 30 -97 3 -12 -28 -38 -123 -104 -305 -209 -496 -371 -536 -456 -41 -86 -10 -143 110 -206 92 -47 323 -123 556 -182 l167 -43 1 -31 c13 -325 16 105 17 2217 l2 2517 -5120 0 -5120 0 0 -2351z"/>
<path d="M4830 8779 c-430 -36 -791 -126 -1173 -290 -770 -331 -1408 -927 -1802 -1683 -150 -289 -269 -626 -334 -952 -84 -417 -92 -924 -21 -1339 221 -1284 1125 -2368 2344 -2812 258 -94 526 -159 816 -198 161 -22 540 -30 728 -16 1082 83 2070 644 2708 1537 255 358 457 803 563 1244 78 320 105 591 98 955 -7 322 -32 513 -103 797 -219 872 -752 1632 -1499 2137 -538 364 -1119 565 -1798 620 -145 12 -385 12 -527 0z m1611 -2005 c8 -9 16 -39 19 -66 l5 -49 69 -24 c39 -14 91 -37 116 -53 l47 -29 31 28 c22 20 43 29 66 29 28 0 41 -9 85 -59 63 -73 66 -102 17 -150 l-33 -32 23 -57 c13 -31 29 -81 35 -109 11 -50 14 -53 48 -58 73 -11 86 -24 89 -90 7 -125 -11 -155 -94 -155 -36 0 -54 -4 -54 -12 0 -7 -15 -43 -33 -80 l-32 -66 32 -36 c49 -53 44 -78 -25 -148 -70 -70 -95 -74 -149 -25 l-36 34 -51 -28 c-28 -15 -75 -35 -103 -44 -53 -17 -53 -18 -53 -59 0 -23 -7 -52 -16 -64 -14 -20 -23 -22 -109 -22 -86 0 -95 2 -109 22 -9 12 -16 41 -16 64 0 42 0 42 -52 59 -29 10 -83 33 -120 53 l-68 36 -30 -29 c-49 -47 -83 -40 -147 31 -66 74 -70 108 -18 152 l35 29 -24 54 c-13 30 -29 80 -36 111 -13 59 -23 68 -81 68 -48 0 -62 29 -58 118 5 103 20 122 94 122 l52 0 22 56 c11 30 27 65 36 76 13 20 12 24 -20 60 -19 21 -35 48 -35 60 0 31 117 148 147 148 13 0 40 -15 61 -34 l38 -35 32 21 c17 11 62 30 99 43 l68 24 5 49 c8 76 17 82 125 82 73 0 95 -3 106 -16z m-1915 -442 c36 -19 56 -62 68 -145 l11 -81 85 -12 c104 -15 229 -53 334 -102 l79 -37 56 62 c64 70 85 83 136 83 49 0 64 -9 176 -107 153 -133 161 -180 55 -299 l-55 -61 35 -49 c48 -66 118 -207 148 -296 l25 -73 88 3 c74 3 93 0 120 -17 57 -36 65 -58 75 -216 9 -134 8 -146 -11 -183 -24 -47 -70 -72 -133 -72 -23 0 -59 -3 -78 -6 -36 -6 -36 -6 -54 -90 -10 -46 -34 -121 -52 -166 -18 -45 -32 -83 -31 -83 1 -1 30 -23 65 -49 70 -54 92 -87 92 -145 0 -34 -12 -56 -88 -158 -50 -67 -100 -124 -116 -131 -64 -29 -119 -11 -221 72 l-30 24 -55 -43 c-67 -52 -211 -135 -285 -165 -50 -20 -54 -24 -48 -48 3 -14 6 -60 7 -103 1 -69 -2 -80 -24 -104 -37 -40 -52 -45 -163 -61 -239 -34 -277 -15 -299 148 l-11 85 -89 12 c-103 13 -221 49 -331 99 l-78 35 -62 -68 c-58 -63 -65 -68 -113 -72 -63 -6 -75 -1 -191 100 -99 86 -120 110 -123 148 -6 63 1 80 59 147 l60 69 -34 48 c-49 69 -119 208 -149 295 l-25 75 -88 -3 c-97 -3 -135 11 -169 63 -25 38 -41 303 -20 343 32 62 60 76 158 82 l91 5 22 90 c13 50 36 125 53 168 l30 77 -58 45 c-83 64 -100 88 -100 145 0 49 20 81 156 253 29 36 71 57 115 57 34 0 79 -26 175 -101 6 -5 42 16 90 52 75 57 210 132 281 157 32 11 33 11 25 59 -4 26 -7 74 -7 105 0 46 4 61 25 83 38 41 54 46 189 64 124 17 166 15 207 -7z m2132 -993 c30 -10 42 -32 42 -76 0 -17 10 -25 48 -37 26 -9 65 -27 87 -40 l39 -24 33 25 c21 16 39 22 52 18 25 -8 101 -90 101 -109 0 -9 -13 -30 -29 -48 -27 -31 -28 -35 -15 -60 8 -15 20 -51 28 -80 12 -49 16 -53 47 -59 55 -8 59 -14 59 -89 0 -63 -2 -71 -25 -86 -15 -10 -34 -14 -50 -10 -22 6 -27 1 -54 -56 l-30 -62 25 -29 c13 -16 24 -36 24 -45 0 -22 -90 -112 -111 -112 -10 0 -31 11 -47 25 l-29 24 -39 -20 c-21 -11 -56 -25 -76 -31 -34 -10 -38 -15 -38 -45 0 -50 -29 -73 -93 -73 -70 0 -97 19 -97 69 0 36 -2 38 -42 50 -24 7 -64 25 -91 39 l-47 25 -30 -21 c-43 -32 -64 -27 -109 26 -48 55 -50 76 -15 113 l27 28 -21 48 c-11 26 -23 65 -27 86 -7 34 -10 37 -40 37 -52 0 -68 23 -63 92 5 69 23 92 73 93 33 0 37 4 64 62 l29 61 -24 23 c-36 34 -30 60 26 113 27 25 53 46 59 46 5 0 23 -12 40 -26 l31 -26 52 25 c29 13 65 27 80 31 23 5 27 12 30 48 2 34 8 45 28 55 31 16 77 16 118 2z"/>
<path d="M10229 4983 c-1 -172 -6 -244 -17 -254 -4 -3 -74 -23 -157 -44 -481 -120 -685 -217 -685 -323 0 -99 183 -269 563 -524 89 -60 117 -83 113 -96 -69 -225 -93 -299 -136 -412 -64 -169 -130 -320 -140 -320 -4 0 -76 7 -161 17 -96 10 -244 17 -394 17 -233 1 -242 0 -293 -23 -65 -29 -87 -65 -78 -128 14 -106 121 -297 321 -578 55 -76 104 -145 108 -152 8 -13 -12 -42 -157 -228 -81 -103 -256 -303 -312 -356 l-39 -37 -185 88 c-398 188 -587 243 -679 196 -95 -49 -74 -281 69 -777 22 -76 40 -140 40 -142 0 -8 -240 -161 -360 -229 -63 -36 -163 -90 -222 -119 l-107 -53 -153 153 c-298 301 -445 411 -547 411 -48 0 -76 -21 -106 -81 -49 -95 -83 -292 -110 -633 -8 -104 -16 -191 -18 -192 -5 -5 -341 -74 -452 -93 -134 -22 -324 -45 -329 -40 -2 2 -38 80 -81 174 -179 395 -305 583 -401 601 -105 20 -231 -154 -431 -591 l-82 -180 -68 3 c-86 3 -457 65 -605 100 l-113 28 -7 84 c-48 540 -80 708 -152 785 -89 94 -224 15 -584 -339 l-192 -190 -38 18 c-152 71 -495 270 -612 355 l-36 26 53 195 c124 451 143 659 65 720 -41 33 -165 25 -292 -20 -112 -39 -314 -127 -471 -206 l-114 -57 -68 74 c-128 139 -259 294 -353 417 l-93 123 91 127 c245 340 348 530 348 642 0 50 -36 92 -96 110 -74 24 -359 24 -608 1 -126 -12 -230 -20 -231 -19 -2 2 -28 62 -58 133 -69 165 -135 347 -180 497 l-34 116 116 78 c386 260 590 457 567 549 -22 89 -241 185 -674 298 l-172 45 0 -2364 0 -2364 5120 0 5120 0 0 2570 c0 1414 -2 2570 -5 2570 -3 0 -5 -71 -6 -157z"/>
</g>
<g id="layer103" fill="#ffffff" stroke="none">
<path d="M0 7889 c0 -2234 1 -2350 18 -2345 9 2 80 21 157 41 427 110 620 192 662 280 15 31 15 37 -2 81 -36 96 -209 247 -532 468 -138 94 -141 97 -133 124 5 15 32 99 61 187 53 165 97 283 164 440 21 50 39 91 40 93 1 1 58 -4 126 -12 192 -23 475 -39 564 -32 256 22 298 93 186 320 -48 100 -192 323 -318 495 l-62 83 89 119 c114 150 185 235 318 380 l106 116 160 -77 c410 -197 617 -261 703 -216 104 53 81 277 -86 858 l-20 68 62 44 c96 68 338 210 491 287 l138 71 182 -181 c253 -253 371 -346 479 -381 150 -48 215 152 262 808 7 89 8 92 34 98 14 3 51 12 83 20 172 43 438 87 591 99 l87 7 37 -83 c63 -140 198 -410 243 -484 89 -146 153 -205 224 -205 36 0 46 6 101 63 35 35 88 107 120 162 53 90 185 358 243 493 l23 52 57 0 c104 0 678 -103 720 -129 6 -4 18 -93 27 -201 41 -497 95 -686 201 -706 86 -16 270 118 545 397 92 93 169 169 172 169 9 0 333 -173 417 -223 64 -38 242 -153 268 -172 1 -1 -22 -91 -53 -199 -58 -208 -99 -404 -111 -523 -9 -96 8 -164 49 -199 30 -25 36 -26 103 -21 126 11 284 69 601 222 l173 83 136 -151 c117 -129 313 -370 361 -444 13 -20 8 -30 -78 -149 -271 -376 -379 -594 -337 -681 45 -95 316 -114 802 -57 66 7 122 12 124 9 22 -21 187 -458 238 -630 14 -44 27 -87 30 -97 3 -12 -28 -38 -123 -104 -305 -209 -496 -371 -536 -456 -41 -86 -10 -143 110 -206 92 -47 321 -123 553 -182 91 -23 166 -43 168 -45 1 -1 5 -47 9 -101 3 -55 7 -101 9 -103 2 -2 4 1101 4 2452 l0 2457 -5120 0 -5120 0 0 -2351z"/>
<path d="M4805 7949 c-49 -5 -157 -23 -240 -40 -628 -125 -1168 -436 -1588 -912 -355 -403 -583 -897 -674 -1462 -25 -158 -25 -642 0 -800 102 -638 370 -1170 806 -1605 299 -298 650 -521 1044 -661 678 -243 1448 -215 2101 77 837 374 1448 1133 1625 2019 75 373 75 771 1 1137 -82 399 -264 805 -507 1126 -456 603 -1096 985 -1848 1104 -150 23 -567 33 -720 17z m1636 -1175 c8 -9 16 -39 19 -66 l5 -49 69 -24 c39 -14 91 -37 116 -53 l47 -29 31 28 c22 20 43 29 66 29 28 0 41 -9 85 -59 63 -73 66 -102 17 -150 l-33 -32 23 -57 c13 -31 29 -81 35 -109 11 -50 14 -53 48 -58 73 -11 86 -24 89 -90 7 -125 -11 -155 -94 -155 -36 0 -54 -4 -54 -12 0 -7 -15 -43 -33 -80 l-32 -66 32 -36 c49 -53 44 -78 -25 -148 -70 -70 -95 -74 -149 -25 l-36 34 -51 -28 c-28 -15 -75 -35 -103 -44 -53 -17 -53 -18 -53 -59 0 -23 -7 -52 -16 -64 -14 -20 -23 -22 -109 -22 -86 0 -95 2 -109 22 -9 12 -16 41 -16 64 0 42 0 42 -52 59 -29 10 -83 33 -120 53 l-68 36 -30 -29 c-49 -47 -83 -40 -147 31 -66 74 -70 108 -18 152 l35 29 -24 54 c-13 30 -29 80 -36 111 -13 59 -23 68 -81 68 -48 0 -62 29 -58 118 5 103 20 122 94 122 l52 0 22 56 c11 30 27 65 36 76 13 20 12 24 -20 60 -19 21 -35 48 -35 60 0 31 117 148 147 148 13 0 40 -15 61 -34 l38 -35 32 21 c17 11 62 30 99 43 l68 24 5 49 c8 76 17 82 125 82 73 0 95 -3 106 -16z m-1915 -442 c36 -19 56 -62 68 -145 l11 -81 85 -12 c104 -15 229 -53 334 -102 l79 -37 56 62 c64 70 85 83 136 83 49 0 64 -9 176 -107 153 -133 161 -180 55 -299 l-55 -61 35 -49 c48 -66 118 -207 148 -296 l25 -73 88 3 c74 3 93 0 120 -17 57 -36 65 -58 75 -216 9 -134 8 -146 -11 -183 -24 -47 -70 -72 -133 -72 -23 0 -59 -3 -78 -6 -36 -6 -36 -6 -54 -90 -10 -46 -34 -121 -52 -166 -18 -45 -32 -83 -31 -83 1 -1 30 -23 65 -49 70 -54 92 -87 92 -145 0 -34 -12 -56 -88 -158 -50 -67 -100 -124 -116 -131 -64 -29 -119 -11 -221 72 l-30 24 -55 -43 c-67 -52 -211 -135 -285 -165 -50 -20 -54 -24 -48 -48 3 -14 6 -60 7 -103 1 -69 -2 -80 -24 -104 -37 -40 -52 -45 -163 -61 -239 -34 -277 -15 -299 148 l-11 85 -89 12 c-103 13 -221 49 -331 99 l-78 35 -62 -68 c-58 -63 -65 -68 -113 -72 -63 -6 -75 -1 -191 100 -99 86 -120 110 -123 148 -6 63 1 80 59 147 l60 69 -34 48 c-49 69 -119 208 -149 295 l-25 75 -88 -3 c-97 -3 -135 11 -169 63 -25 38 -41 303 -20 343 32 62 60 76 158 82 l91 5 22 90 c13 50 36 125 53 168 l30 77 -58 45 c-83 64 -100 88 -100 145 0 49 20 81 156 253 29 36 71 57 115 57 34 0 79 -26 175 -101 6 -5 42 16 90 52 75 57 210 132 281 157 32 11 33 11 25 59 -4 26 -7 74 -7 105 0 46 4 61 25 83 38 41 54 46 189 64 124 17 166 15 207 -7z m2132 -993 c30 -10 42 -32 42 -76 0 -17 10 -25 48 -37 26 -9 65 -27 87 -40 l39 -24 33 25 c21 16 39 22 52 18 25 -8 101 -90 101 -109 0 -9 -13 -30 -29 -48 -27 -31 -28 -35 -15 -60 8 -15 20 -51 28 -80 12 -49 16 -53 47 -59 55 -8 59 -14 59 -89 0 -63 -2 -71 -25 -86 -15 -10 -34 -14 -50 -10 -22 6 -27 1 -54 -56 l-30 -62 25 -29 c13 -16 24 -36 24 -45 0 -22 -90 -112 -111 -112 -10 0 -31 11 -47 25 l-29 24 -39 -20 c-21 -11 -56 -25 -76 -31 -34 -10 -38 -15 -38 -45 0 -50 -29 -73 -93 -73 -70 0 -97 19 -97 69 0 36 -2 38 -42 50 -24 7 -64 25 -91 39 l-47 25 -30 -21 c-43 -32 -64 -27 -109 26 -48 55 -50 76 -15 113 l27 28 -21 48 c-11 26 -23 65 -27 86 -7 34 -10 37 -40 37 -52 0 -68 23 -63 92 5 69 23 92 73 93 33 0 37 4 64 62 l29 61 -24 23 c-36 34 -30 60 26 113 27 25 53 46 59 46 5 0 23 -12 40 -26 l31 -26 52 25 c29 13 65 27 80 31 23 5 27 12 30 48 2 34 8 45 28 55 31 16 77 16 118 2z"/>
<path d="M6282 6439 c-121 -16 -231 -99 -289 -218 -24 -49 -27 -68 -28 -151 0 -88 3 -101 33 -162 138 -282 536 -282 674 0 30 61 33 74 33 162 0 84 -3 102 -28 151 -76 156 -227 239 -395 218z"/>
<path d="M4330 5630 c-264 -69 -473 -277 -541 -539 -27 -105 -27 -268 0 -374 64 -247 242 -434 501 -528 58 -21 81 -24 225 -23 146 0 166 2 232 26 317 113 513 384 515 708 0 124 -18 211 -67 317 -97 210 -291 368 -512 417 -99 22 -258 20 -353 -4z"/>
<path d="M6531 5039 c-152 -46 -226 -220 -153 -360 115 -221 440 -164 477 83 15 99 -46 213 -139 260 -46 23 -136 32 -185 17z"/>
<path d="M10229 4963 c-1 -98 -4 -191 -8 -207 -6 -28 -10 -30 -176 -73 -487 -125 -675 -215 -675 -321 0 -99 183 -269 563 -524 89 -60 117 -83 113 -96 -69 -225 -93 -299 -136 -412 -64 -169 -130 -320 -140 -320 -4 0 -76 7 -161 17 -96 10 -244 17 -394 17 -233 1 -242 0 -293 -23 -65 -29 -87 -65 -78 -128 14 -106 121 -297 321 -578 55 -76 104 -145 108 -152 8 -13 -12 -42 -157 -228 -81 -103 -256 -303 -312 -356 l-39 -37 -185 88 c-398 188 -587 243 -679 196 -95 -49 -74 -281 69 -777 22 -76 40 -140 40 -142 0 -8 -240 -161 -360 -229 -63 -36 -163 -90 -222 -119 l-107 -53 -153 153 c-298 301 -445 411 -547 411 -48 0 -76 -21 -106 -81 -49 -95 -83 -292 -110 -633 -8 -104 -16 -191 -18 -192 -5 -5 -341 -74 -452 -93 -134 -22 -324 -45 -329 -40 -2 2 -38 80 -81 174 -179 395 -305 583 -401 601 -105 20 -231 -154 -431 -591 l-82 -180 -68 3 c-86 3 -457 65 -605 100 l-113 28 -7 84 c-48 540 -80 708 -152 785 -89 94 -224 15 -584 -339 l-192 -190 -38 18 c-152 71 -495 270 -612 355 l-36 26 53 195 c124 451 143 659 65 720 -41 33 -165 25 -292 -20 -112 -39 -314 -127 -471 -206 l-114 -57 -68 74 c-128 139 -259 294 -353 417 l-93 123 91 127 c245 340 348 530 348 642 0 50 -36 92 -96 110 -74 24 -359 24 -608 1 -126 -12 -230 -20 -231 -19 -2 2 -28 62 -58 133 -69 165 -135 347 -180 497 l-34 116 116 78 c386 260 590 457 567 549 -22 89 -241 185 -674 298 l-172 45 0 -2364 0 -2364 5120 0 5120 0 0 2570 c0 1414 -2 2570 -5 2570 -3 0 -6 -80 -6 -177z"/>
</g>


</svg>