<!DOCTYPE svg PUBLIC "-//W3C//DTD SVG 20010904//EN" "http://www.w3.org/TR/2001/REC-SVG-20010904/DTD/svg10.dtd">
<svg version="1.0" xmlns="http://www.w3.org/2000/svg" width="1024px" height="1024px" viewBox="0 0 10240 10240" preserveAspectRatio="xMidYMid meet">
<g id="layer101" fill="#000000" stroke="none">
 <path d="M0 5120 l0 -5120 5120 0 5120 0 0 5120 0 5120 -5120 0 -5120 0 0 -5120z"/>
 </g>
<g id="layer102" fill="#ffffff" stroke="none">
 <path d="M9290 9279 l-944 -939 -2228 0 -2228 0 0 435 c0 239 -3 435 -6 435 -15 0 -2733 -2045 -2726 -2051 20 -18 2724 -2039 2728 -2039 2 0 4 196 4 435 l0 435 1052 0 1053 0 -870 -870 -870 -870 1107 0 1108 0 2 435 3 435 1350 -1010 c743 -556 1356 -1017 1364 -1025 12 -11 -192 -168 -1350 -1035 l-1364 -1022 -3 436 -2 436 -2288 0 -2287 0 -950 -950 -950 -950 5123 0 5122 0 0 5110 c0 2811 -1 5110 -2 5109 -2 0 -428 -423 -948 -940z"/>
 </g>

</svg>